<?xml version="1.0" encoding="utf-8"?>
<!-- Generator: Adobe Illustrator 23.0.5, SVG Export Plug-In . SVG Version: 6.00 Build 0)  -->
<svg version="1.1" id="Layer_1" xmlns="http://www.w3.org/2000/svg" xmlns:xlink="http://www.w3.org/1999/xlink" x="0px" y="0px"
	 viewBox="0 0 1008.5 474.1" style="enable-background:new 0 0 1008.5 474.1;" xml:space="preserve">
<style type="text/css">
	.st0{fill:#F06341;}
	.st1{fill:#68170F;}
</style>
<g>
	<path class="st0" d="M0,7.9C1.4,8,2.8,8.2,4.2,8.2c22.1,0,44.1-0.5,66.2,0.2c18.2,0.6,34.1,7.2,44.9,22.9
		c4.9,7.2,7.6,15.3,9.6,23.8c3.1,13,2.7,26.3,2.8,39.5c0,25.8,0.1,51.6,0,77.4c0,6.7,0.1,13.4-1,20c-2.2,13.2-5.9,25.9-17,34.7
		c-2.3,1.8-5,3.1-7.4,4.7c-0.7,0.4-1.2,1.1-1.9,1.6c0.6,0.6,1,1.4,1.7,1.8c7.5,3.7,13.1,9.3,17.3,16.5c3.5,6,5.6,12.6,6.4,19.5
		c1,7.9,1.8,15.8,1.8,23.8c0.2,32.1,0,64.3,0.1,96.4c0,10.4-0.8,20.7-3.3,30.8c-4.1,16.6-12.7,30.3-28.5,38
		c-5.7,2.8-12.2,4.8-18.4,5.1c-19.8,0.9-39.6,0.9-59.4,1.2c-6,0.1-12,0.2-18.1,0.3C0,313.4,0,160.6,0,7.9z M41.3,337.3
		c0,27.7,0,55.5,0,83.2c0,1.9-0.3,3.7,2.7,3.7c7.8-0.1,15.6,0,23.4-0.1c5.2-0.1,10.5-1,13.9-5.3c4.1-5.1,6.2-11.2,6.2-17.9
		c0-39.5,0-79,0-118.4c0-5.3-0.7-10.3-2.3-15.4c-3.3-10.7-11.7-16.6-22.1-16.3c-5.9,0.1-11.8,0.2-17.8,0c-3.1-0.1-4.1,0.8-4.1,4
		C41.4,282.3,41.3,309.8,41.3,337.3z M41.3,132c0,26.3,0,52.6,0,79c0,2.5,0.5,3.5,3.3,3.4c7-0.2,14,0.1,21.1-0.1
		c2.4-0.1,5.1-0.6,7.2-1.7c10.1-5.2,14.4-14.3,14.5-25c0.3-36.4,0.1-72.8,0.1-109.2c0-5.8-0.1-11.5-2.5-17
		c-2.4-5.6-7-10.6-13.9-10.8c-8.5-0.3-17.1-0.2-25.6-0.6c-3.3-0.1-4.2,0.8-4.2,4.2C41.4,80,41.3,106,41.3,132z"/>
	<path class="st0" d="M439.8,469.4c-1.6-0.7-3.2-1.6-4.9-2c-8.6-1.9-13.6-7.5-16.7-15.5c-3.1-7.9-3.1-16.1-3.2-24.2
		c-0.3-45.2-0.1-90.4-0.2-135.6c0-8-2.1-15.4-7-21.7c-3.2-4.1-7.9-6.6-12.9-7c-8.6-0.7-17.3-0.5-25.9-0.8c-2.2-0.1-2.9,1-2.9,3
		c0,2.3,0,4.6,0,6.9c0,62.8,0,125.5,0,188.3c0,5.8,0.3,5-5.2,5.1c-10.3,0-20.6-0.1-30.9,0.1c-3.5,0.1-4.2-1.1-4.2-4.3
		c0.1-79.6,0.1-159.1,0.1-238.7c0-70.2,0-140.5-0.1-210.7c0-3.4,0.9-4.2,4.2-4.2c21.8,0.1,43.7-0.5,65.5,0.3
		c15.6,0.5,30.2,5.2,40.9,17.5c5.6,6.4,9.5,13.8,12,21.9c2.3,7.3,3.4,14.8,3.9,22.5c0.3,5.5,0.9,11.1,0.9,16.6
		c0.1,34.9,0.5,69.8-0.2,104.7c-0.2,12.4-2.1,25-8.9,36.1c-3.8,6.3-9,11.2-15.4,14.9c-1,0.6-1.9,1.2-2.8,1.8
		c4.5,3.4,9.1,6.2,12.9,9.9c4.5,4.4,7.8,9.8,10.2,15.8c3.9,10.1,5.2,20.4,5.2,31.1c0,42.4,0,84.7,0.1,127.1c0,3,0.8,6,1.2,9
		c0.7,4.2,3,6.7,8,7c0,8.5,0,16.9,0,25.3C455.6,469.4,447.7,469.4,439.8,469.4z M366.1,136.5C366.1,136.5,366.1,136.5,366.1,136.5
		c0,27.3,0,54.6,0,81.9c0,4.8,0,4.8,5,4.8c6.7,0,13.4,0.1,20.1,0c4.7-0.1,8.7-1.8,12.2-4.9c7.7-6.7,9.6-15.8,9.6-25.2
		c0.3-38.2,0.2-76.3,0-114.5c0-4.6-0.6-9.4-1.6-13.9c-1.4-6.8-7.1-14.3-16-14.5c-8.3-0.1-16.6-0.3-25-0.4c-4.3-0.1-4.4,0-4.4,4.4
		C366.1,81.7,366.1,109.1,366.1,136.5z"/>
	<path class="st0" d="M996.8,466.2c-9.1-0.1-18.2-0.2-27.3-0.3c-4.1,0-8.1-0.1-12.2,0c-2.2,0.1-3.1-0.6-3.1-3c-0.2-6-0.6-12-1-18
		c-0.8-11.6-1.6-23.3-2.5-34.9c-0.8-11.6-1.8-23.2-2.5-34.8c-0.2-2.5-1.7-2.4-3.4-2.4c-9.7,0-19.3,0-29,0c-3.4,0-6.8,0-10.2,0
		c-1.9,0-3.1,0.3-3.2,2.6c-0.3,4.9-0.9,9.8-1.4,14.6c-0.8,7.8-1.6,15.6-2.4,23.4c-1,9.7-1.8,19.5-2.8,29.2
		c-0.8,7.6-1.9,15.1-2.9,22.9c-11.9,0-23.9,0-36.4,0c0.4-3.5,0.7-7.2,1.1-10.8c0.8-6.9,1.6-13.9,2.4-20.8c1-8.9,2.2-17.7,3.2-26.6
		c0.7-6.2,1.3-12.4,2-18.5c1.1-9.4,2.2-18.8,3.2-28.2c0.6-6.1,0.9-12.2,1.6-18.3c1-8.9,2.2-17.7,3.2-26.5c0.7-6.4,1.2-12.8,1.9-19.2
		c1-8.7,2.2-17.5,3.2-26.2c0.6-5.5,1.1-11,1.7-16.6c0.8-7.9,1.8-15.8,2.6-23.7c1.1-10.6,2-21.3,3.3-31.9c1.4-12.3,3.2-24.6,4.7-36.9
		c0.6-4.5,0.7-9.1,1.2-13.7c1-8.6,2.1-17.2,3.1-25.9c0.7-6.5,1.3-13,2-19.5c1-9.1,2.2-18.2,3.2-27.3c0.6-5.3,0.9-10.7,1.5-16
		c0.8-8.1,1.7-16.2,2.7-24.3c1-8.7,2.1-17.5,3.1-26.5c13.8,0,27.8,0,41.8,0c0.6,5.1,1.1,10,1.6,14.8c1.1,9.4,2.2,18.8,3.2,28.2
		c0.7,6.6,1.2,13.2,1.9,19.8c0.8,7.5,1.7,14.9,2.4,22.4c0.6,5.8,1,11.7,1.6,17.6c0.8,8.2,1.8,16.4,2.7,24.7
		c1.3,12.5,2.7,25.1,3.9,37.6c0.9,9.2,1.7,18.4,2.6,27.7c1,9.3,2.2,18.6,3.2,27.9c0.5,4.4,0.8,8.9,1.2,13.4
		c0.9,9.2,1.7,18.4,2.7,27.6c0.9,9.1,1.9,18.2,2.9,27.3c1,9.5,2.1,19,3.1,28.5c0.7,7,1.3,14.1,2.1,21.1c1,9.4,2.1,18.8,3.1,28.3
		c0.7,6.5,1.1,13,1.8,19.5c0.6,5.7,1.5,11.4,2.1,17.1c0.5,4.4,0.6,8.9,1.1,13.4c1,10.1,2.1,20.1,3.2,30.2c0.2,1.8,0.8,3.6,1.3,5.4
		C996.8,462.6,996.8,464.4,996.8,466.2z M928,126.6c-0.3,0-0.6,0.1-0.9,0.1c-0.5,5.3-1.1,10.5-1.6,15.8c-0.7,7.5-1.3,15-2.1,22.5
		c-0.7,7.3-1.6,14.5-2.4,21.8c-0.6,6.1-1.1,12.1-1.7,18.2c-1.1,11.1-2.3,22.3-3.4,33.4c-1.1,10.3-2.2,20.5-3.2,30.8
		c-0.9,9.5-1.7,19.1-2.6,28.6c-0.4,4.7-0.6,9.4-1.1,14.1c-0.6,5.7-1.3,11.4-1.9,17.2c-0.4,3,1,3.7,3.8,3.7c9.7-0.1,19.3-0.1,29-0.1
		c4.3,0,4.7-0.4,4.3-4.7c-0.8-9.2-1.7-18.4-2.4-27.7c-0.9-11.2-1.7-22.4-2.6-33.6c-1.1-13.6-2.2-27.1-3.2-40.7
		c-1-13.7-1.9-27.4-2.8-41.1c-0.2-2.4-0.2-4.8-0.4-7.2c-0.6-6.7-1.4-13.4-1.9-20.1c-0.7-9.3-1-18.5-1.6-27.8
		C929,128.8,928.4,127.7,928,126.6z"/>
	<path class="st0" d="M646.6,4.6c1.2,0.4,2.3,1.1,3.5,1.2c14.7,1,26.9,7,36.5,18.1c9.3,10.8,14,23.6,16.6,37.5
		c2.6,13.9,1.5,27.9,2,42.2c-13.2,0-26.2,0-39.4,0c-0.1-0.7-0.2-1.6-0.2-2.4c-0.2-9.3,0.2-18.7-0.7-27.9c-0.8-7.9-1.7-16.1-7.8-22.4
		c-4.5-4.7-10.1-5.7-16-4.7c-9.9,1.7-15.7,7.8-18.5,17.5c-2.4,8.3-2.2,16.6-1.6,25c0.4,5.9,1.1,11.9,2.3,17.8
		c1.2,5.6,2.7,11.2,4.8,16.5c3.4,8.5,7.2,16.9,11.2,25.1c4.5,9.2,9.4,18.2,14.1,27.3c4.2,8.1,8.3,16.1,12.5,24.2
		c7.6,14.5,15.4,28.9,22.7,43.6c6.5,13,11.9,26.3,14.8,40.7c2.4,12,2.4,24,2.1,36.2c-0.3,11.7-2.7,22.9-6.7,33.8
		c-4.1,11.1-10.7,20.4-20.1,27.7c-8.1,6.4-17.3,9.8-27.4,11.4c-12.1,2-23.8,0.7-34.9-3.8c-11.9-4.8-21.4-13-27.9-24.3
		c-4.3-7.5-7-15.6-9.1-24c-1.8-6.9-1.8-13.8-1.8-20.8c0-10.2,0.1-20.4-0.1-30.6c0-2.5,0.8-3.2,3.2-3.2c11.2,0.1,22.4,0.1,33.6,0
		c2.9,0,3.5,1.1,3.4,3.7c-0.1,11.1-0.2,22.2,0,33.2c0.1,9.6,2.1,18.6,8.3,26.3c5.2,6.4,13.5,8.9,21.5,6.5
		c8.5-2.5,13.3-7.9,15.9-16.5c2.6-8.9,2.1-17.7,2-26.6c-0.2-15.3-4.1-29.8-10.8-43.4c-7.4-15.1-15.3-29.9-22.9-44.9
		c-4.5-9-8.9-18.1-13.4-27c-7-13.8-14.6-27.4-21.2-41.4c-4.5-9.6-7.8-19.9-11.4-29.9c-5.2-14.6-5.9-29.7-5.1-45
		c0.9-17,4.1-33.7,13.2-48.4c9.3-15,22.8-24.3,40.8-26.4c2.7-0.3,5.4-0.5,8.1-0.9c0.7-0.1,1.2-0.8,1.8-1.2
		C645.3,4.6,645.9,4.6,646.6,4.6z"/>
	<path class="st0" d="M292.8,465.6c-1.2,0.1-2,0.3-2.9,0.3c-12,0-23.9,0-35.9,0.1c-2.8,0-3.6-1.3-3.7-3.7c-0.5-10.1-1-20.3-1.6-30.4
		c-0.8-11.7-1.6-23.5-2.5-35.2c-0.6-7.1-1.6-14.2-2.3-21.4c-0.2-1.9-1-2.4-2.7-2.4c-13.3,0-26.5,0-39.8,0c-2,0-2.5,1-2.6,2.9
		c-1,11.1-2.1,22.1-3.1,33.2c-0.8,8.1-1.5,16.3-2.3,24.4c-1.1,10.3-2.2,20.5-3.4,30.8c-0.1,0.7-1.3,1.8-2,1.8
		c-10.9,0.1-21.7,0.1-32.6,0.1c-1.8,0-2.4-0.9-2.2-2.4c1-8.2,2.1-16.4,3-24.6c1-9.7,1.9-19.3,2.9-29c0.5-5.1,1.3-10.1,1.9-15.2
		c0.5-4.7,0.9-9.3,1.4-14c0.7-7,1.5-14,2.3-21c0.9-8.8,1.8-17.5,2.9-26.3c1-8.5,2.2-17,3.1-25.6c0.7-6.3,1.2-12.6,1.9-18.9
		c1-9,2.2-17.9,3.2-26.9c0.7-6.7,1.3-13.5,2-20.2c0.5-4.3,1.1-8.6,1.6-12.9c0.5-4.7,0.9-9.3,1.4-14c1-9.2,2.2-18.4,3.2-27.6
		c0.7-6.4,1.3-12.8,2-19.1c1-8.8,2.1-17.5,3.1-26.2c0.7-6,1.3-11.9,1.9-17.9c0.8-7.4,1.6-14.7,2.4-22.1c1.1-10.6,2-21.2,3.3-31.8
		c1.2-10.6,2.7-21.1,4-31.7c0.7-6.3,1.2-12.6,1.9-18.8c0.3-3.1,0.7-6.3,1.4-9.3c0.2-0.9,1.6-2.2,2.5-2.2c12.4-0.1,24.8-0.1,37.2-0.1
		c2.3,0,2.7,1.6,2.9,3.3c0.7,6.9,1.2,13.9,1.9,20.9c1,9.4,2.2,18.8,3.2,28.2c0.7,6.4,1,12.8,1.7,19.2c1,9.8,2.3,19.6,3.4,29.5
		c0.7,6.4,1.1,12.8,1.7,19.2c0.7,7.4,1.5,14.7,2.2,22.1c1,9.2,1.9,18.4,2.9,27.6c1,9.5,2.2,19,3.2,28.5c0.7,6.5,1.1,13,1.7,19.5
		c0.6,5.7,1.5,11.4,2.1,17.1c0.5,4.7,0.5,9.4,1,14.1c1,9.6,2.2,19.2,3.2,28.9c0.7,7.1,1.3,14.3,2,21.5c0.7,6.8,1.5,13.6,2.2,20.4
		c1,9.4,1.9,18.9,2.8,28.3c1.1,10.6,2.1,21.2,3.2,31.8c0.8,7.9,1.6,15.8,2.4,23.7c1,9.1,2.1,18.2,3.1,27.2c0.8,7,1.4,14.1,2.1,21.1
		C292.4,462,292.6,463.7,292.8,465.6z M224.9,123.4c-0.3,0-0.7-0.1-1-0.1c-0.3,0.5-0.7,1.1-0.8,1.6c-0.9,9.1-1.7,18.2-2.5,27.3
		c-1.1,11.9-2.1,23.9-3.3,35.8c-0.7,7.1-1.6,14.3-2.3,21.4c-0.7,7.5-1.2,15-2,22.5c-1,9.6-2.1,19.2-3.1,28.9
		c-1,10.1-1.9,20.1-2.9,30.2c-0.8,8-1.6,16-2.3,24c-0.5,5-0.9,10-1.5,15c-0.2,1.9,0.3,2.8,2.5,2.8c10.9-0.1,21.7-0.1,32.6,0
		c2.1,0,2.5-0.7,2.2-2.8c-0.8-5.9-1.4-11.8-1.9-17.8c-0.9-11.1-1.5-22.2-2.3-33.3c-0.6-8.2-1.2-16.3-1.8-24.5
		c-0.8-11-1.7-21.9-2.5-32.9c-0.6-7.8-1-15.7-1.6-23.5c-0.8-11.1-1.8-22.1-2.6-33.2c-0.2-2.2,0-4.4-0.2-6.6
		c-0.8-10.6-1.6-21.3-2.4-31.9C225.3,125.4,225.1,124.4,224.9,123.4z"/>
	<path class="st0" d="M816.3,465.7c-1.5,0.1-2.7,0.2-3.8,0.2c-10.8,0-21.5-0.1-32.3,0.1c-3.2,0.1-4-0.9-4-4.1
		c0.1-49,0.1-98.1,0.1-147.1c0-86.6,0-173.1,0-259.7c0-0.8,0-1.5,0-2.3c0-4.3,0-4.3-4.5-4.3c-12.1,0-24.1-0.1-36.2,0.1
		c-2.6,0-3.4-0.8-3.3-3.4c0.1-11.3,0.1-22.6,0-33.9c0-2.3,0.7-3.1,3-3c39.4,0.1,78.8,0.1,118.2,0c2.5,0,3.2,0.9,3.2,3.3
		c-0.1,11.3-0.1,22.6,0,33.9c0,2.6-1,3.1-3.3,3.1c-11.2-0.1-22.4,0-33.6-0.1c-2.5,0-3.7,0.7-3.4,3.3c0.2,1.6,0,3.3,0,4.9
		c0,134.6,0,269.3,0,403.9C816.3,462.2,816.3,463.8,816.3,465.7z"/>
	<path class="st0" d="M546.2,8.6c0,126.9,0,253.7,0,380.8c-1,0.1-1.9,0.3-2.9,0.3c-11.5,0-23-0.1-34.6,0.1c-2.8,0-3.5-1-3.5-3.6
		c0.1-124.9,0-249.7,0-374.6c0-1.9-0.1-3.4,2.6-3.4c12.1,0.1,24.1,0,36.2,0.1C544.8,8.2,545.4,8.4,546.2,8.6z"/>
	<path class="st1" d="M505.1,423c1.2,0,2.4,0,3.6,0c64.6,0,129.2,0,193.8-0.1c3.4,0,4.3,0.9,4.2,4.2c-0.2,11.8-0.1,23.7,0,35.5
		c0,2.7-0.7,3.5-3.5,3.5c-65-0.1-130.1-0.1-195.1-0.1c-0.9,0-1.7-0.1-2.9-0.1C505.1,451.8,505.1,437.6,505.1,423z"/>
</g>
</svg>
