<svg xmlns="http://www.w3.org/2000/svg" width="38" height="20" fill="none" xmlns:v="https://vecta.io/nano"><g clip-path="url(#A)"><g fill="#737530"><path d="M16.857 1c.638 0 1.162.111 1.572.332l-.48 1.579a2.25 2.25 0 0 0-1.034-.234 1.36 1.36 0 0 0-1.062.458c-.274.306-.412.711-.412 1.218v1.209h2.451v1.637H15.44v7.911h-1.761V7.196h-1.761V5.56h1.761V4.176c0-.948.297-1.714.891-2.299S15.926 1 16.857 1zm2.069 4.561h1.686v1.326h.077c.267-.468.679-.858 1.236-1.169a3.52 3.52 0 0 1 1.733-.468c1.148 0 2.032.335 2.652 1.004s.929 1.62.928 2.854v6.003h-1.761V9.225c-.038-1.559-.81-2.338-2.317-2.339-.702 0-1.29.289-1.761.867s-.708 1.269-.709 2.075v5.281h-1.761V5.561h-.003zm14.17 9.861a3.97 3.97 0 0 1-1.886-.449c-.567-.3-1.005-.695-1.312-1.189h-.077l.077 1.326v3.893h-1.761V5.561h1.686v1.326h.077c.306-.494.743-.89 1.311-1.188a4.01 4.01 0 0 1 1.886-.449c1.238 0 2.285.494 3.141 1.481.88 1 1.382 2.202 1.382 3.606 0 1.416-.5 2.618-1.382 3.607-.858.985-1.905 1.477-3.142 1.478zm-.288-1.637c.842 0 1.551-.325 2.126-.975.575-.636.863-1.461.863-2.475 0-1-.288-1.826-.863-2.475s-1.284-.975-2.126-.974c-.855 0-1.57.325-2.144.974-.562.65-.843 1.475-.842 2.475 0 1.013.281 1.845.842 2.495a2.77 2.77 0 0 0 2.144.955zM3.867 7.132s-.69-.356-1.089-.986-.519-1.414-.21-1.974 1.089-.569 1.74-.041 1.24 1.373 1.569 2.075c.01-.071.21-1.192.629-1.85s.91-1.21 1.679-.957c.718.286.73 1.17.6 1.678s-.44 1.16-1.309 1.922l1.789-.234c.23-.031.6-.081.639.448l.13 1.587c.02.254-.04.558-.5.558s-2.949-.031-4.718.031-2.355.07-2.777.298c-.569.363-.552 2.02-.442 3.057l.24 1.576c.01.04.04.164.209.172l4.268.112 2.77-.06c.12-.009.15-.041.17-.153s.051-.64.051-1.048l-.023-1.645-.057-1.794s-.018-.264.23-.286.27.214.27.275l.07 2.248v2.146c-.02.508-.2.733-.649.753l-3.937.04L2.05 15c-.48 0-.62-.201-.72-.64a11.75 11.75 0 0 1-.26-2.613c.02-1.139.11-1.831.23-2.096s.37-.559 1.189-.671 2.329-.122 3.39-.133H9.51c.028 0 .027-.022.027-.022l-.107-1.56s0-.015-.02-.012a26.42 26.42 0 0 1-3.059.383c-1.569.091-2.949.031-4.708-.213l-.14 1.435c-.02.163-.09.275-.28.265s-.23-.163-.22-.294l.149-1.526c.051-.254.179-.439.56-.376s1.037.164 2.157.205z"/></g><g fill="#d0af21"><path d="M1.843 7.757c.003-.036.003-.048.052-.041a12.45 12.45 0 0 0 1.399.157l2.73.046 2.157-.137.948-.135c.03-.005.047.003.051.044l.054.815c.001.044-.019.055-.078.058s-3.376-.033-4.878.031l-2.394.214c-.08.014-.143.036-.137-.063l.097-.988zm.471 6.327c-.086-.018-.132-.036-.165-.17s-.202-.87-.222-1.966.035-1.374.115-1.56.247-.455.848-.522 1.765-.106 2.431-.113l3.219.003c.148.003.225.054.24.22l.12 2.579-.014 1.297c-.014.168-.043.27-.243.282l-3.677.057-2.652-.107z"/></g></g><defs><clipPath id="A"><path fill="#fff" transform="translate(1 1)" d="M0 0h36.621v18H0z"/></clipPath></defs></svg>