<svg xmlns="http://www.w3.org/2000/svg" width="101.062" height="50.689" viewBox="0 0 101.062 50.689">
  <g id="Group_2940" data-name="Group 2940" transform="translate(-350.342 -1139.311)">
    <path id="Path_19599" data-name="Path 19599" d="M10.706,0l5.92-17.615H12.61L8.582-3.8H8.5L4.468-17.615H.342L6.262,0Zm11.4,0V-17.615H18.42V0Zm2.93-17.615V0h6.726c5.286,0,8.4-3.284,8.4-8.875s-3.113-8.74-8.4-8.74Zm3.687,3.04h2.6c3.247,0,5.078,2.026,5.078,5.713,0,3.809-1.782,5.811-5.078,5.811h-2.6ZM46.216,0V-5.383l1.648-1.978L53.088,0H57.5l-6.97-9.8,6.519-7.812h-4.1L46.326-9.583h-.11v-8.032H42.529V0ZM70.435-3.052h-7.7V-17.615H59.045V0H70.435ZM78.5,0V-6.58l6.14-11.035H80.688L76.733-10.1h-.085l-3.943-7.52H68.689L74.817-6.58V0ZM90.125,0V-5.383l1.648-1.978L97,0H101.4l-6.97-9.8,6.519-7.812h-4.1L90.234-9.583h-.11v-8.032H86.438V0Z" transform="translate(350 1190)" fill="#34332f"/>
    <path id="Path_1" data-name="Path 1" d="M25.9,14.792,12.133,10.565A1.379,1.379,0,0,0,10.426,12.3l4.42,13.6a1.377,1.377,0,0,0,1.212.936h.11a1.377,1.377,0,0,0,1.225-.771l4.34-4.34,4.445-4.39a1.377,1.377,0,0,0-.22-2.547ZM5.909,3.956A1.383,1.383,0,0,0,3.954,5.911L7.755,9.7a1.363,1.363,0,0,0,1.9-1.955Zm.73,10.189A1.381,1.381,0,0,0,6.9,11.4l-5.356-.84a1.377,1.377,0,0,0-.386,2.726l5.3.84Zm.069,1.9L1.93,18.468a1.377,1.377,0,0,0,.62,2.6,1.253,1.253,0,0,0,.62-.151L7.961,18.5a1.377,1.377,0,1,0-1.253-2.451Zm9.983-7.422a1.473,1.473,0,0,0,.633.151,1.377,1.377,0,0,0,1.225-.757l2.437-4.764a1.386,1.386,0,0,0-2.451-1.294L16.1,6.765a1.377,1.377,0,0,0,.592,1.859Zm-3.883-.578h.22a1.377,1.377,0,0,0,1.143-1.583l-.84-5.287a1.394,1.394,0,0,0-2.754.441l.867,5.26A1.377,1.377,0,0,0,12.808,8.045Z" transform="translate(400.466 1139.311) rotate(45)" fill="#34332f"/>
  </g>
</svg>
