<svg xmlns="http://www.w3.org/2000/svg" width="20" height="20" viewBox="0 0 30 30"><g transform="translate(0 -1036.362)"><path d="M15,0A15,15,0,1,0,30,15,15.014,15.014,0,0,0,15,0Zm0,1.875a2.026,2.026,0,0,1,1.45.806A8.836,8.836,0,0,1,18.01,5.4a21.349,21.349,0,0,1,1.058,3.977H10.931A21.352,21.352,0,0,1,11.99,5.4a8.836,8.836,0,0,1,1.56-2.717A2.026,2.026,0,0,1,15,1.875Zm-3.563.5a12.333,12.333,0,0,0-1.194,2.344,23.346,23.346,0,0,0-1.23,4.658H3.149A13.112,13.112,0,0,1,11.437,2.373Zm7.126,0a13.112,13.112,0,0,1,8.287,7H20.988a23.34,23.34,0,0,0-1.231-4.658A12.341,12.341,0,0,0,18.563,2.373ZM2.424,11.25H8.789A35.758,35.758,0,0,0,8.573,15a35.766,35.766,0,0,0,.216,3.75H2.424a13.075,13.075,0,0,1,0-7.5Zm8.254,0h8.643A33.421,33.421,0,0,1,19.552,15a33.382,33.382,0,0,1-.231,3.75H10.679A33.364,33.364,0,0,1,10.448,15,33.421,33.421,0,0,1,10.679,11.25Zm10.532,0h6.365a13.073,13.073,0,0,1,0,7.5H21.211A35.781,35.781,0,0,0,21.427,15,35.773,35.773,0,0,0,21.211,11.25ZM3.153,20.625H9.012a23.365,23.365,0,0,0,1.23,4.662,12.31,12.31,0,0,0,1.19,2.336A13.111,13.111,0,0,1,3.153,20.625Zm7.782,0h8.13a21.426,21.426,0,0,1-1.055,3.981,8.835,8.835,0,0,1-1.56,2.717,2.018,2.018,0,0,1-1.45.8,2.018,2.018,0,0,1-1.45-.8,8.835,8.835,0,0,1-1.56-2.717A21.425,21.425,0,0,1,10.935,20.625Zm10.053,0h5.859a13.111,13.111,0,0,1-8.28,7,12.309,12.309,0,0,0,1.19-2.336A23.36,23.36,0,0,0,20.988,20.625Z" transform="translate(0 1036.362)" fill="#34332F"/></g></svg>