<svg xmlns="http://www.w3.org/2000/svg" width="216.542" height="216.293" viewBox="0 0 216.542 216.293">
  <path id="_67e2739025a4cb2338c0147da4494ae6" data-name="67e2739025a4cb2338c0147da4494ae6" d="M8.647,155.645l10.809-7.206-9.368-5.765ZM79.264,47.558,67.735,41.073H66.294L12.971,134.748v1.441l12.25,6.485h.721L79.264,49ZM38.912,74.219H.721L0,95.116C0,95.837.721,97.278.721,98h24.5L38.912,74.219Zm99.441,62.69-2.882,2.162c-1.441,1.441-1.441,2.882.721,6.485,2.162,2.882,5.765,4.323,9.368,5.765.721,0,1.441.721,2.162.721,0-5.765-1.441-11.529-3.6-14.412A7.656,7.656,0,0,0,138.353,136.91ZM73.5,74.219,59.809,98h40.353q-4.324-8.647-10.809-23.779Zm43.956,0c.721,2.162,2.162,3.6,2.882,5.765l3.6,7.206.721.721,5.044,8.647c0,.721.721.721.721,1.441h19.456c.721-.721.721-2.162.721-2.882v-20.9H117.456Zm18.735,56.2a2.647,2.647,0,0,0,.721-2.162l-5.765-10.809c0-.721-.721-.721-1.441-.721l-2.162,1.441c-.721.721-1.441.721-2.882,1.441l-.721.721h-.721l-.721.721c-.721.721-.721.721,0,1.441l7.206,10.809c0,.721.721.721,1.441.721l.721-.721a2.647,2.647,0,0,1,2.162-.721l2.162-2.162Zm-9.368-21.617v-2.882c-.721-.721-1.441-2.882-2.882-5.765l-4.324-8.647v-.721l-.721-.721c0-.721-.721-.721-.721-1.441l-2.162-4.323a.706.706,0,0,0-.721-.721c-11.529-21.617-19.456-36.029-24.5-43.955-3.6-5.044-6.485-11.529-10.088-17.294C76.382,15.132,71.338,5.765,67.015,0c2.162,9.367,10.809,28.1,14.412,36.749l1.441,3.6v1.441c2.882,2.162,4.324,5.765,3.6,8.647,14.412,33.867,27.382,59.808,30.265,62.69,2.162.721,2.882.721,4.324,0l4.324-2.162c0-.721,1.441-1.441,1.441-2.162Z" transform="translate(113.831) rotate(47)" fill="#3e51ff"/>
</svg>
