<svg id="fb4b021fcdaa32e66b360191f4d16090" xmlns="http://www.w3.org/2000/svg" width="91.927" height="126.572" viewBox="0 0 91.927 126.572">
  <path id="Path_19379" data-name="Path 19379" d="M59.964,10.828,35.705,24.836l24.259,14,24.259-14ZM54.856,59.623,22.937,41.2l-7.661,4.42L14,46.355V56.673L36.982,69.941v5.9l-14.044-8.11L15.277,72.15,14,72.891V83.209L36.982,96.477v5.9L22.937,94.266l-7.661,4.423L14,99.429v10.319l30.642,17.691,1.277.738,1.277-.738,7.661-4.42V74.7l.49.283,1.277-2.209-1.767-1.021V59.623ZM44.642,124.489,16.554,108.274v-5.9l22.982,13.265V95L16.554,81.736v-5.9L39.535,89.108V68.465L16.554,55.2V49.3l28.089,16.22Zm55.539-69.657c-.3-.171-.6-.3-.906-.447l.013-.023-6.455-3.728q-.418-.267-.858-.5l-.347-.2-.02.033a11.45,11.45,0,0,0-10.579.439L65.071,59.623V71.754L63.3,72.776l1.277,2.209.49-.283v48.317l7.661,4.42,1.277.738,1.277-.738,24.9-14.376a11.516,11.516,0,0,0,5.745-9.948V64.783A11.371,11.371,0,0,0,100.182,54.832Zm3.192,48.281a8.963,8.963,0,0,1-4.469,7.74l-23.62,13.636V65.521l14.683-8.48a8.94,8.94,0,0,1,13.406,7.742Z" transform="translate(-14 -1.605)" fill="#52e4e9"/>
  <path id="Path_19380" data-name="Path 19380" d="M87.3,69.289a6.307,6.307,0,0,0-6.381,0l-8.3,4.788v47.178l14.68-8.475a6.4,6.4,0,0,0,3.194-5.531V74.817A6.316,6.316,0,0,0,87.3,69.289Zm.641,31.329L75.178,107.99V75.555L82.2,71.5a3.83,3.83,0,0,1,5.745,3.317ZM45.368,11.164l2.211-1.277,1.277,2.206L46.645,13.37ZM21.214,28.05h.34v-.194l.766-.444L21.043,25.2,19,26.38v1.67h2.214ZM52.2,10.165l1.129.649L54.6,8.605,52.2,7.216,49.79,8.605l1.277,2.209ZM32.1,18.822l2.211-1.277,1.277,2.209L33.376,21.03Zm8.845-5.1,2.211-1.277,1.277,2.206-2.211,1.277Zm-4.423,2.551,2.209-1.277L40.008,17.2,37.8,18.477Zm-13.268,7.66,2.211-1.277,1.277,2.209-2.211,1.277ZM19,40.817h2.554v2.553H19Zm0,5.107h2.554v2.553H19ZM19,35.71h2.554v2.553H19ZM19,30.6h2.554v2.553H19Zm8.674-9.226L29.886,20.1l1.277,2.209-2.211,1.277Zm55.164,19.44h2.554v2.553H82.838Zm0,5.107h2.554v2.553H82.838Zm0,5.107h2.554v2.553H82.838Zm0-22.981h2.554V26.38L83.349,25.2l-1.277,2.209.766.444Zm0,2.553h2.554v2.553H82.838Zm0,5.107h2.554v2.553H82.838ZM59.959,14.644l1.277-2.209,2.211,1.277L62.17,15.921ZM64.381,17.2l1.277-2.209,2.209,1.277L66.59,18.477Zm-8.845-5.112,1.277-2.209,2.211,1.277-1.277,2.209ZM68.8,19.751l1.277-2.209,2.211,1.277-1.277,2.209Zm8.845,5.107,1.277-2.209,2.211,1.277-1.277,2.209ZM73.229,22.3l1.277-2.209,2.209,1.277-1.274,2.209Zm-19.9,57.362-1.129.649-1.129-.649L49.79,81.872,52.2,83.262,54.6,81.872ZM54.749,62.68l15.96-9.21a11.34,11.34,0,0,1,7-1.435l.026-.005V32.659l-24.259,14v27.2l1.277-.738Zm-3.83,11.184v-27.2L26.661,32.656V49.412L49.642,62.68V73.127Z" transform="translate(-6.232 -7.216)" fill="#52e4e9"/>
</svg>
