<svg xmlns="http://www.w3.org/2000/svg" width="185.109" height="183.274" viewBox="0 0 185.109 183.274">
  <path id="_40f7a374fbed17da766417dcfc2310d6" data-name="40f7a374fbed17da766417dcfc2310d6" d="M46.546,91.587l-4.069,4.069a2.559,2.559,0,0,1-3.743,0L.814,57.736a2.559,2.559,0,0,1,0-3.743l37.92-37.92a2.559,2.559,0,0,1,3.743,0l4.069,4.069a2.559,2.559,0,0,1,0,3.743l-31.98,31.98,31.98,31.98a2.559,2.559,0,0,1,0,3.743ZM94.638,4.762,64.286,109.815a2.647,2.647,0,0,1-1.261,1.587,2.271,2.271,0,0,1-1.912.2l-5.045-1.383a2.646,2.646,0,0,1-1.587-1.261,2.436,2.436,0,0,1-.2-1.994L84.629,1.914A2.647,2.647,0,0,1,85.891.327,2.271,2.271,0,0,1,87.8.124l5.045,1.383a2.647,2.647,0,0,1,1.587,1.261A2.436,2.436,0,0,1,94.638,4.762ZM148.1,57.736l-37.92,37.92a2.559,2.559,0,0,1-3.743,0l-4.069-4.069a2.559,2.559,0,0,1,0-3.743l31.98-31.98-31.98-31.98a2.559,2.559,0,0,1,0-3.743l4.069-4.069a2.559,2.559,0,0,1,3.743,0l37.92,37.92a2.559,2.559,0,0,1,0,3.743Z" transform="translate(0 101.56) rotate(-43)" fill="#ffd501"/>
</svg>
