<svg xmlns="http://www.w3.org/2000/svg" width="120.719" height="129.834" viewBox="0 0 120.719 129.834">
  <path id="_380655d93321d484f656980d4ad35c1a" data-name="380655d93321d484f656980d4ad35c1a" d="M13.561,40.069a17.925,17.925,0,0,0,4.141-.436L22,68.927H5.147L9.7,39.683A17.94,17.94,0,0,0,13.561,40.069ZM19.5,144.574a5.946,5.946,0,0,1-11.881.033L4.854,73.495H22.268ZM13.564,0,25.57,16.683a11.727,11.727,0,0,1-.158,11.926A13.615,13.615,0,0,1,1.7,28.593a11.643,11.643,0,0,1-.145-11.857Zm.1,32.85a2.284,2.284,0,0,0,0-4.568A6.154,6.154,0,0,1,7.5,22.158a2.284,2.284,0,0,0-4.568,0A10.727,10.727,0,0,0,13.667,32.85Z" transform="translate(100.562) rotate(42)" fill="#ff824a"/>
</svg>
