<svg xmlns="http://www.w3.org/2000/svg" width="38.024" height="38.024" viewBox="0 0 38.024 38.024">
  <path id="Path_1" data-name="Path 1" d="M25.9,14.792,12.133,10.565A1.379,1.379,0,0,0,10.426,12.3l4.42,13.6a1.377,1.377,0,0,0,1.212.936h.11c.522,0,.773-.335,1.225-.771l4.282-4.227,4.5-4.5c.43-.413.8-.787.752-1.348a1.377,1.377,0,0,0-.972-1.2ZM5.909,3.956A1.383,1.383,0,0,0,3.954,5.911L7.755,9.7a1.363,1.363,0,0,0,1.9-1.955Zm.73,10.189A1.381,1.381,0,0,0,6.9,11.4l-5.356-.84a1.377,1.377,0,0,0-.386,2.726l5.3.84Zm.069,1.9L1.93,18.468a1.377,1.377,0,0,0,.62,2.6,1.253,1.253,0,0,0,.62-.151L7.961,18.5a1.377,1.377,0,1,0-1.253-2.451Zm9.983-7.422a1.473,1.473,0,0,0,.633.151,1.377,1.377,0,0,0,1.225-.757l2.437-4.764a1.386,1.386,0,0,0-2.451-1.294L16.1,6.765a1.377,1.377,0,0,0,.592,1.859Zm-3.883-.578h.22a1.377,1.377,0,0,0,1.143-1.583l-.84-5.287a1.394,1.394,0,0,0-2.754.441l.867,5.26A1.377,1.377,0,0,0,12.808,8.045Z" transform="translate(18.979 0) rotate(45)" fill="#34332f"/>
</svg>
