<svg xmlns="http://www.w3.org/2000/svg" xmlns:xlink="http://www.w3.org/1999/xlink" width="247.463" height="57.383" viewBox="0 0 247.463 57.383">
  <defs>
    <linearGradient id="linear-gradient" y1="0.5" x2="1" y2="0.5" gradientUnits="objectBoundingBox">
      <stop offset="0" stop-color="#3e51ff"/>
      <stop offset="0.376" stop-color="#ff824a"/>
      <stop offset="0.644" stop-color="#fb81ff"/>
      <stop offset="1" stop-color="#52e4e9"/>
    </linearGradient>
  </defs>
  <path id="Path_19602" data-name="Path 19602" d="M-82.916,0V-45.8H-122.24V0h9.617V-37.864h20.154V0Zm31.04-35.515a11.458,11.458,0,0,0-10.7,6.316h-.571v-5.745h-8.95V11.584h9.236V-5.332h.571C-60.573-1.65-56.732.54-51.718.54c8.76,0,14.124-6.792,14.124-18.027C-37.594-28.755-43.021-35.515-51.876-35.515Zm-3.142,28.6c-4.888,0-7.935-4-7.935-10.537s3.047-10.569,7.966-10.569,7.9,3.967,7.9,10.537C-47.084-10.886-50.035-6.919-55.018-6.919ZM-13.917.73C-3.158.73,3.317-6.062,3.317-17.488c0-11.331-6.57-18.218-17.234-18.218s-17.234,6.919-17.234,18.218C-31.151-6.094-24.677.73-13.917.73Zm0-7.3c-4.951,0-7.744-4-7.744-10.918,0-6.855,2.825-10.886,7.744-10.886,4.888,0,7.744,4.031,7.744,10.886C-6.173-10.569-9-6.57-13.917-6.57ZM48.1,9.045V-7.046H42.831v-27.9H33.595v27.9H20.709v-27.9H11.473V0H39.657V9.045ZM77.172-9.871c-.984,2.38-3.491,3.713-7.141,3.713-4.824,0-7.871-3.333-8-8.665V-15.3H86.058v-2.761c0-11.045-6.094-17.646-16.409-17.646-10.41,0-16.821,7.046-16.821,18.408C52.828-6,59.113.73,69.777.73c8.569,0,14.631-4.094,16-10.6Zm-7.49-18.948c4.316,0,7.109,2.983,7.3,7.776H62.064C62.382-25.74,65.4-28.818,69.681-28.818Zm55.542,6.062c-.762-7.808-6.316-12.949-15.583-12.949-10.95,0-17.107,6.633-17.107,18.154C92.533-5.9,98.722.73,109.64.73c9.109,0,14.822-5.015,15.583-12.7h-8.633c-.7,3.491-3.174,5.364-6.951,5.364-4.951,0-7.776-3.9-7.776-10.95,0-6.951,2.793-10.791,7.776-10.791,3.936,0,6.316,2.222,6.951,5.586Z" transform="translate(122.24 45.798)" fill="url(#linear-gradient)"/>
</svg>
