<svg xmlns="http://www.w3.org/2000/svg" xmlns:xlink="http://www.w3.org/1999/xlink" width="253.303" height="46.528" viewBox="0 0 253.303 46.528">
  <defs>
    <linearGradient id="linear-gradient" x1="0.068" y1="0.5" x2="0.934" y2="0.5" gradientUnits="objectBoundingBox">
      <stop offset="0" stop-color="#3e51ff"/>
      <stop offset="0.385" stop-color="#ff824a"/>
      <stop offset="0.619" stop-color="#fb81ff"/>
      <stop offset="1" stop-color="#52e4e9"/>
    </linearGradient>
  </defs>
  <path id="Контур_19585" data-name="Контур 19585" d="M-125.35-45.8V0h9.585V-14.441h9.045c9.648,0,16.345-6.284,16.345-15.615,0-9.458-6.443-15.742-15.869-15.742Zm9.585,7.617h6.982c5.522,0,8.665,2.825,8.665,8.157,0,5.205-3.206,8.062-8.7,8.062h-6.951ZM-82.472,0h9.236V-19.551c0-4.919,3.459-7.935,8.506-7.935a18.837,18.837,0,0,1,4.38.508V-35.1a14.374,14.374,0,0,0-3.618-.413c-4.443,0-8.062,2.634-8.982,6.125h-.571v-5.554h-8.95Zm43.005.73c10.759,0,17.234-6.792,17.234-18.218,0-11.331-6.57-18.218-17.234-18.218S-56.7-28.787-56.7-17.488C-56.7-6.094-50.226.73-39.467.73Zm0-7.3c-4.951,0-7.744-4-7.744-10.918,0-6.855,2.825-10.886,7.744-10.886,4.888,0,7.744,4.031,7.744,10.886C-31.722-10.569-34.547-6.57-39.467-6.57ZM16.266-22.756C15.5-30.564,9.95-35.706.682-35.706c-10.95,0-17.107,6.633-17.107,18.154C-16.425-5.9-10.236.73.682.73c9.109,0,14.822-5.015,15.583-12.7H7.633C6.935-8.474,4.459-6.6.682-6.6c-4.951,0-7.776-3.9-7.776-10.95C-7.094-24.5-4.3-28.342.682-28.342c3.936,0,6.316,2.222,6.951,5.586ZM46.1-9.871c-.984,2.38-3.491,3.713-7.141,3.713-4.824,0-7.871-3.333-8-8.665V-15.3H54.987v-2.761c0-11.045-6.094-17.646-16.409-17.646-10.41,0-16.821,7.046-16.821,18.408C21.757-6,28.041.73,38.7.73c8.569,0,14.631-4.094,16-10.6ZM38.61-28.818c4.316,0,7.109,2.983,7.3,7.776H30.992C31.31-25.74,34.325-28.818,38.61-28.818Zm23.137,4.063c0,5.364,3.3,8.569,10.093,10.061l6.348,1.428c3.079.7,4.412,1.777,4.412,3.555,0,2.317-2.476,3.9-6.062,3.9-3.682,0-5.935-1.428-6.633-3.84H60.89C61.525-3.047,67.111.73,76.346.73,85.519.73,91.771-3.777,91.771-10.7c0-5.205-3.047-8.062-9.839-9.553l-6.57-1.428c-3.237-.73-4.729-1.841-4.729-3.618,0-2.285,2.444-3.84,5.745-3.84,3.428,0,5.554,1.428,6.03,3.745h8.538c-.508-6.6-5.745-10.315-14.631-10.315C67.587-35.706,61.747-31.294,61.747-24.756Zm36.182,0c0,5.364,3.3,8.569,10.093,10.061l6.348,1.428c3.079.7,4.412,1.777,4.412,3.555,0,2.317-2.476,3.9-6.062,3.9-3.682,0-5.935-1.428-6.633-3.84H97.072C97.706-3.047,103.292.73,112.528.73c9.172,0,15.425-4.507,15.425-11.426,0-5.205-3.047-8.062-9.839-9.553l-6.57-1.428c-3.237-.73-4.729-1.841-4.729-3.618,0-2.285,2.444-3.84,5.745-3.84,3.428,0,5.554,1.428,6.03,3.745h8.538c-.508-6.6-5.745-10.315-14.631-10.315C103.768-35.706,97.928-31.294,97.928-24.756Z" transform="translate(125.35 45.798)" fill="url(#linear-gradient)"/>
</svg>
