<svg xmlns="http://www.w3.org/2000/svg" width="25.958" height="39.887" viewBox="0 0 25.958 39.887">
  <path id="Path_19374" data-name="Path 19374" d="M48.448,5.54a.952.952,0,0,0-.981.06,12.327,12.327,0,0,0-5.185,8.462l-.909,6.714-.006.028a.949.949,0,0,0,.722,1.133,1.9,1.9,0,0,1,1.485,1.9,1.968,1.968,0,0,1-2.007,1.852h-.95a4.659,4.659,0,0,0-.472.025c-.028-.057-.054-.117-.082-.177l-.785-1.526a21.279,21.279,0,0,1-2.349-9.7V1.95a.95.95,0,0,0-1.9,0V14.311a21.267,21.267,0,0,1-2.349,9.7L31.9,25.537c-.028.057-.054.117-.082.177-.155-.013-.313-.022-.472-.022h-.95a1.973,1.973,0,0,1-2.01-1.852,1.907,1.907,0,0,1,1.485-1.9.949.949,0,0,0,.722-1.133l-.915-6.743A12.32,12.32,0,0,0,24.488,5.6.948.948,0,0,0,23,6.382V31.39a.948.948,0,0,0,.95.95h3.8a.95.95,0,1,0,0-1.9H24.9V8.417a10.406,10.406,0,0,1,2.893,5.9l.82,6.062a3.809,3.809,0,0,0-2.13,3.5,3.882,3.882,0,0,0,3.91,3.707h.719a10.5,10.5,0,0,0,1.2,8.237l2.862,4.612a.948.948,0,0,0,1.611,0l2.862-4.612a10.522,10.522,0,0,0,1.2-8.237h.719a3.876,3.876,0,0,0,3.906-3.7,3.809,3.809,0,0,0-2.13-3.5l.82-6.062a10.416,10.416,0,0,1,2.893-5.9V30.44H43.893a.95.95,0,0,0,0,1.9h4.115a.948.948,0,0,0,.95-.95V6.382a.95.95,0,0,0-.51-.842ZM34.371,24.881a22.964,22.964,0,0,0,1.608-4.02,22.964,22.964,0,0,0,1.608,4.02l.684,1.333a5.634,5.634,0,0,0-2.3,1.953,5.634,5.634,0,0,0-2.3-1.953l.69-1.333Zm3.663,9.943-2.054,3.311-2.054-3.311a8.6,8.6,0,0,1-.956-6.85,3.687,3.687,0,0,1,2.061,3.3v1.9a.95.95,0,0,0,1.9,0v-1.9a3.69,3.69,0,0,1,2.061-3.3A8.6,8.6,0,0,1,38.034,34.825Z" transform="translate(-23 -1)" fill="#9e9e9e"/>
</svg>
