<svg id="Group_2909" data-name="Group 2909" xmlns="http://www.w3.org/2000/svg" xmlns:xlink="http://www.w3.org/1999/xlink" width="62.169" height="62.01" viewBox="0 0 62.169 62.01">
  <defs>
    <linearGradient id="linear-gradient" x1="0.5" x2="0.5" y2="1" gradientUnits="objectBoundingBox">
      <stop offset="0" stop-color="#3e51ff"/>
      <stop offset="1" stop-color="#ff824a"/>
    </linearGradient>
  </defs>
  <path id="Path_19573" data-name="Path 19573" d="M59,5a4,4,0,0,0-4,4c0,.024.007.045.007.069L45.43,11.731a4.947,4.947,0,0,0-8.187-.994l-8.39-4.721a3.994,3.994,0,1,0-7.192,1.177l-3.427,3.761a5.959,5.959,0,0,0-6.7.161l-3.1-3.1A3.947,3.947,0,0,0,9,6a4,4,0,1,0-4,4,3.947,3.947,0,0,0,2.019-.567l3.1,3.1a5.963,5.963,0,0,0,.414,7.459l-1.9,2.369a4.059,4.059,0,1,0,1.556,1.255l1.9-2.371a5.976,5.976,0,0,0,4.668.5l4.651,9.311c-3.182,3.091-4.116,7.487-2.847,13.309a5,5,0,0,0,2.385,8.972C22.271,58.979,26.811,63,32,63s9.729-4.021,11.056-9.671a5,5,0,0,0,2.4-8.959,18.5,18.5,0,0,0,.044-8.6l6.284-4.5a6,6,0,1,0,6.173-9.929l1.4-8.37A3.99,3.99,0,1,0,59,5ZM42.355,51.367h0a1,1,0,0,0-1.1.819C40.348,57.293,36.458,61,32,61s-8.348-3.707-9.25-8.814a1.077,1.077,0,0,0-1.062-.826,1.02,1.02,0,0,0-.124.007,3.014,3.014,0,1,1,0-6.028,2.782,2.782,0,0,1,.589.057,1,1,0,0,0,1.214-.977V42.038c2.462-.274,8.676-1.232,11.176-4.085a15.2,15.2,0,0,0,6.09,3.957v2.51a1,1,0,0,0,.373.779,1.012,1.012,0,0,0,.841.2,2.782,2.782,0,0,1,.589-.057,3.014,3.014,0,1,1-.081,6.027ZM55.985,21a5.985,5.985,0,0,0-5.366,8.636l-5.894,4.226a7.925,7.925,0,0,0-.928-1.377,8.226,8.226,0,0,0-6.069-2.711,12.065,12.065,0,0,0-12.711-1.243,15.967,15.967,0,0,0-2.03,1.206l-4.447-8.9A5.974,5.974,0,0,0,19.714,12.3l3.439-3.773a3.925,3.925,0,0,0,4.727-.763l8.382,4.716A4.913,4.913,0,0,0,36,14a5,5,0,0,0,10,0c0-.117-.027-.227-.035-.342l9.587-2.665A4,4,0,0,0,57.38,12.65Z" transform="translate(-1 -0.99)" fill="url(#linear-gradient)"/>
  <circle id="Ellipse_31" data-name="Ellipse 31" cx="1.204" cy="1.204" r="1.204" transform="translate(24.578 43.35)" fill="url(#linear-gradient)"/>
  <circle id="Ellipse_32" data-name="Ellipse 32" cx="1.204" cy="1.204" r="1.204" transform="translate(35.014 43.35)" fill="url(#linear-gradient)"/>
  <path id="Path_19574" data-name="Path 19574" d="M32,56a2,2,0,0,1-2-2H28a4,4,0,0,0,8,0H34A2,2,0,0,1,32,56Z" transform="translate(-1 -0.99)" fill="url(#linear-gradient)"/>
</svg>
