<svg xmlns="http://www.w3.org/2000/svg" xmlns:xlink="http://www.w3.org/1999/xlink" width="61.065" height="61.999" viewBox="0 0 61.065 61.999">
  <defs>
    <linearGradient id="linear-gradient" x1="0.5" x2="0.5" y2="1" gradientUnits="objectBoundingBox">
      <stop offset="0" stop-color="#3e51ff"/>
      <stop offset="1" stop-color="#ff824a"/>
    </linearGradient>
  </defs>
  <path id="Контур_19575" data-name="Контур 19575" d="M18.772,13.264h8.4a2.777,2.777,0,0,1,2.375,1.347l-3.868,3.51L23.656,16.1a3.053,3.053,0,0,0-4.318,4.318l4.078,4.078a3.054,3.054,0,0,0,4.285.033l2.242-2.035v1.944a2.78,2.78,0,0,1-2.772,2.772h-8.4A2.78,2.78,0,0,1,16,24.436v-8.4a2.78,2.78,0,0,1,2.772-2.772Zm22.282,47.61H75.218a1.852,1.852,0,0,1,1.847,1.847v6.974a1.852,1.852,0,0,1-1.847,1.847H41.054a1.852,1.852,0,0,1-1.847-1.847V62.72a1.852,1.852,0,0,1,1.847-1.847Zm0-22.411H75.218a1.852,1.852,0,0,1,1.847,1.847v6.974a1.852,1.852,0,0,1-1.847,1.847H41.054a1.852,1.852,0,0,1-1.847-1.847V40.309A1.852,1.852,0,0,1,41.054,38.463Zm0-22.411H75.218A1.852,1.852,0,0,1,77.065,17.9v6.974a1.852,1.852,0,0,1-1.847,1.847H41.054a1.852,1.852,0,0,1-1.847-1.847V17.9A1.852,1.852,0,0,1,41.054,16.051ZM44.686,22.4h26.9a1.018,1.018,0,0,0,0-2.035h-26.9a1.018,1.018,0,1,0,0,2.035Zm0,44.822h26.9a1.018,1.018,0,0,0,0-2.035h-26.9a1.018,1.018,0,1,0,0,2.035Zm0-22.411h26.9a1.018,1.018,0,0,0,0-2.035h-26.9a1.018,1.018,0,1,0,0,2.035ZM20.778,66.1a1.018,1.018,0,0,1,1.439-1.439l3.394,3.394L34.8,59.716a1.016,1.016,0,1,1,1.368,1.5L26.3,70.17l-.006.006a1.018,1.018,0,0,1-1.439,0L20.778,66.1Zm0-47.121,4.078,4.078a1.017,1.017,0,0,0,1.439,0l.006-.006L36.166,14.1a1.016,1.016,0,1,0-1.368-1.5l-9.187,8.337-3.394-3.394a1.018,1.018,0,0,0-1.439,1.439Zm0,23.56A1.018,1.018,0,1,1,22.217,41.1l3.394,3.394L34.8,36.155a1.016,1.016,0,1,1,1.368,1.5L26.3,46.61l-.006.006a1.017,1.017,0,0,1-1.439,0l-4.078-4.078ZM18.772,60.385A2.78,2.78,0,0,0,16,63.157v8.4a2.78,2.78,0,0,0,2.772,2.772h8.4a2.78,2.78,0,0,0,2.772-2.772V69.613L27.7,71.648a3.054,3.054,0,0,1-4.285-.033l-4.078-4.078a3.053,3.053,0,0,1,4.318-4.318l2.023,2.023,3.868-3.51a2.777,2.777,0,0,0-2.375-1.347Zm0-23.56A2.78,2.78,0,0,0,16,39.6V48a2.78,2.78,0,0,0,2.772,2.772h8.4A2.78,2.78,0,0,0,29.944,48V46.053L27.7,48.088a3.054,3.054,0,0,1-4.285-.033l-4.078-4.078a3.053,3.053,0,1,1,4.318-4.318l2.023,2.023,3.868-3.51a2.777,2.777,0,0,0-2.375-1.347Z" transform="translate(-16 -12.33)" fill-rule="evenodd" fill="url(#linear-gradient)"/>
</svg>
