<svg xmlns="http://www.w3.org/2000/svg" xmlns:xlink="http://www.w3.org/1999/xlink" width="62" height="62" viewBox="0 0 62 62">
  <defs>
    <linearGradient id="linear-gradient" x1="0.5" x2="0.5" y2="1" gradientUnits="objectBoundingBox">
      <stop offset="0" stop-color="#3e51ff"/>
      <stop offset="1" stop-color="#ff824a"/>
    </linearGradient>
  </defs>
  <path id="Контур_19577" data-name="Контур 19577" d="M31,0A31,31,0,1,0,62,31,31.026,31.026,0,0,0,31,0Zm0,1.937A29.062,29.062,0,1,1,1.937,31,28.984,28.984,0,0,1,31,1.938Zm10.9,9.687-21.857.06a1.875,1.875,0,0,0-1.877,1.877A1.927,1.927,0,0,0,20.041,15.5v6.3a5.944,5.944,0,0,0,3.693,5.388c1.153.461,2.666.686,3.935,1.091a4.1,4.1,0,0,1,1.513.787,1.236,1.236,0,0,1,.546,1.029V31.6a1.354,1.354,0,0,1-.544,1.091,5.311,5.311,0,0,1-1.515.727c-1.211.4-2.724.628-3.935,1.091a6.019,6.019,0,0,0-3.693,5.508v6.6a1.876,1.876,0,1,0,0,3.753H41.9a1.877,1.877,0,1,0,0-3.753h-.182v-6.6a5.721,5.721,0,0,0-3.391-5.508c-1.269-.463-2.724-.748-3.935-1.151a4.282,4.282,0,0,1-1.453-.727,1.242,1.242,0,0,1-.544-1.031V30.031A1.239,1.239,0,0,1,32.937,29a5.594,5.594,0,0,1,1.453-.787c1.211-.4,2.724-.69,3.935-1.151a5.675,5.675,0,0,0,3.391-5.45V15.442H41.9a1.908,1.908,0,1,0,0-3.815Zm-20.284,9.81H40.323a.4.4,0,0,1,.364.362,3.327,3.327,0,0,1-1.393,2.664,11.808,11.808,0,0,1-2.966,1.453c-1.095.347-2.166.622-3.088.969a3.455,3.455,0,0,0-1.875,1.271c-.116.174-.43.232-.546.06a4.69,4.69,0,0,0-2.058-1.271c-.922-.345-1.994-.622-3.088-.969a11.366,11.366,0,0,1-2.906-1.453,3.275,3.275,0,0,1-1.333-2.664c-.114-.231.01-.424.182-.424ZM31,29.185c.174,0,.242.068.242.24s-.07.3-.242.3a.3.3,0,0,1-.3-.3c-.058-.174.072-.244.3-.244Zm0,2.542c.174,0,.242.13.242.3s-.07.3-.242.3a.3.3,0,0,1-.3-.3C30.639,31.856,30.769,31.727,31,31.727Zm0,2.544c.174,0,.242.128.242.3s-.07.3-.242.3a.3.3,0,0,1-.3-.3c-.058-.116.072-.3.3-.3Zm0,2.6c.174,0,.242.188.242.3s-.07.3-.242.3a.3.3,0,0,1-.3-.3C30.639,37,30.769,36.872,31,36.872Zm-.06,1.7a.29.29,0,0,1,.3.182,4.258,4.258,0,0,0,1.937,1.333c.922.4,1.992.746,3.088,1.149a10.933,10.933,0,0,1,2.966,1.393,3.443,3.443,0,0,1,1.393,2.724.4.4,0,0,1-.364.364H21.677a.4.4,0,0,1-.364-.364,3.443,3.443,0,0,1,1.393-2.724,11.34,11.34,0,0,1,2.906-1.393q1.558-.5,3.088-1.089a3.858,3.858,0,0,0,2-1.393A.436.436,0,0,1,30.94,38.568Z" transform="translate(0 0)" fill="url(#linear-gradient)"/>
</svg>
