<svg xmlns="http://www.w3.org/2000/svg" xmlns:xlink="http://www.w3.org/1999/xlink" width="61.994" height="61.995" viewBox="0 0 61.994 61.995">
  <defs>
    <linearGradient id="linear-gradient" x1="0.5" x2="0.5" y2="1" gradientUnits="objectBoundingBox">
      <stop offset="0" stop-color="#3e51ff"/>
      <stop offset="1" stop-color="#ff824a"/>
    </linearGradient>
  </defs>
  <g id="Сгруппировать_2917" data-name="Сгруппировать 2917" transform="translate(0 0.004)">
    <path id="Контур_19578" data-name="Контур 19578" d="M277.7,41.272,258.709,1.041A1.816,1.816,0,0,0,257.066,0H245.62l13.259,6.629a5.421,5.421,0,0,1,3.013,4.874v39.24l14.942-7.053a1.816,1.816,0,0,0,.867-2.418Z" transform="translate(-215.88 -0.004)" fill="url(#linear-gradient)"/>
    <circle id="Эллипс_33" data-name="Эллипс 33" cx="2.5" cy="2.5" r="2.5" transform="translate(18.997 11.99)" fill="url(#linear-gradient)"/>
    <path id="Контур_19579" data-name="Контур 19579" d="M41.375,9.874,22,.187a1.816,1.816,0,0,0-1.625,0L1,9.874A1.816,1.816,0,0,0,0,11.5V60.174A1.816,1.816,0,0,0,1.816,61.99H40.563a1.816,1.816,0,0,0,1.816-1.816V11.5a1.816,1.816,0,0,0-1-1.625ZM22.753,49.98v2.05a.908.908,0,0,1-.908.908H20.161a.908.908,0,0,1-.908-.908V50.18A8.313,8.313,0,0,1,15.546,48.9a.909.909,0,0,1-.327-1.046l.643-1.79a.908.908,0,0,1,1.359-.449,6.262,6.262,0,0,0,3.342,1c1.359,0,2.272-.688,2.272-1.711,0-.806-.418-1.512-2.453-2.337C17.925,41.6,15.405,40.2,15.405,37.1a5.141,5.141,0,0,1,4.034-5.032V30.095a.908.908,0,0,1,.908-.908H22a.908.908,0,0,1,.908.908v1.746a7.679,7.679,0,0,1,3.027.993.906.906,0,0,1,.39,1.1L25.662,35.7a.908.908,0,0,1-1.3.466,5.57,5.57,0,0,0-2.916-.788c-1.786,0-1.924,1.063-1.924,1.389,0,.739.4,1.233,2.752,2.207,2.187.891,4.7,2.35,4.7,5.728a5.458,5.458,0,0,1-4.223,5.276Zm-1.563-29.4a6.054,6.054,0,1,1,6.054-6.054,6.054,6.054,0,0,1-6.054,6.054Z" fill="url(#linear-gradient)"/>
  </g>
</svg>
