<svg xmlns="http://www.w3.org/2000/svg" xmlns:xlink="http://www.w3.org/1999/xlink" width="62" height="62" viewBox="0 0 62 62">
  <defs>
    <linearGradient id="linear-gradient" x1="0.5" x2="0.5" y2="1" gradientUnits="objectBoundingBox">
      <stop offset="0" stop-color="#3e51ff"/>
      <stop offset="1" stop-color="#ff824a"/>
    </linearGradient>
  </defs>
  <g id="Сгруппировать_2919" data-name="Сгруппировать 2919" transform="translate(-1 -1)">
    <path id="Контур_19580" data-name="Контур 19580" d="M6.916,32.483A7.928,7.928,0,0,1,14.769,24.5a7.928,7.928,0,0,1,7.853,7.983c0,4.495-3.514,9.933-7.853,9.933S6.916,36.978,6.916,32.483ZM28.4,53.11a11.593,11.593,0,0,1,.142,1.744,1.3,1.3,0,0,1-1.292,1.292H2.292A1.3,1.3,0,0,1,1,54.854a11.426,11.426,0,0,1,.129-1.744,11.593,11.593,0,0,1,11.418-9.83h4.43A11.592,11.592,0,0,1,28.4,53.11ZM41.378,32.483a7.854,7.854,0,1,1,15.707,0c0,4.495-3.5,9.933-7.853,9.933S41.378,36.978,41.378,32.483ZM63,54.854a1.3,1.3,0,0,1-1.292,1.292H36.754a1.3,1.3,0,0,1-1.292-1.292,11.644,11.644,0,0,1,11.56-11.573H51.44A11.643,11.643,0,0,1,63,54.854Z" transform="translate(0 6.854)" fill="url(#linear-gradient)"/>
    <g id="Сгруппировать_2918" data-name="Сгруппировать 2918" transform="translate(11.928 1)">
      <path id="Контур_19581" data-name="Контур 19581" d="M33.5,4.035V6.012H24.973a5.62,5.62,0,0,0-5.606,5.619v8.848L15.2,23.837A1.286,1.286,0,0,1,13.1,22.829V18.812h-.62A3.037,3.037,0,0,1,9.46,15.777V4.035A3.029,3.029,0,0,1,12.483,1H30.475A3.029,3.029,0,0,1,33.5,4.035Z" transform="translate(-9.46 -1)" fill="url(#linear-gradient)"/>
    </g>
    <path id="Контур_19582" data-name="Контур 19582" d="M40.133,6.88H22.153A3.029,3.029,0,0,0,19.13,9.915V21.657a3.038,3.038,0,0,0,3.023,3.036h9.042l6.226,5.024a1.331,1.331,0,0,0,1.369.168,1.3,1.3,0,0,0,.736-1.175V24.692h.607a3.04,3.04,0,0,0,3.036-3.036V9.915A3.032,3.032,0,0,0,40.133,6.88ZM26.609,17.137h-1.7a1.292,1.292,0,1,1,0-2.583h1.7a1.292,1.292,0,0,1,0,2.583Zm5.39,0H30.3a1.292,1.292,0,1,1,0-2.583H32a1.292,1.292,0,1,1,0,2.583Zm5.389,0h-1.7a1.292,1.292,0,1,1,0-2.583h1.7a1.292,1.292,0,0,1,0,2.583Z" transform="translate(5.288 1.715)" fill="url(#linear-gradient)"/>
  </g>
</svg>
