<svg xmlns="http://www.w3.org/2000/svg" xmlns:xlink="http://www.w3.org/1999/xlink" width="62" height="62" viewBox="0 0 62 62">
  <defs>
    <linearGradient id="linear-gradient" x1="0.5" x2="0.5" y2="1" gradientUnits="objectBoundingBox">
      <stop offset="0" stop-color="#3e51ff"/>
      <stop offset="1" stop-color="#ff824a"/>
    </linearGradient>
  </defs>
  <path id="Контур_19583" data-name="Контур 19583" d="M64.893,26.165H56.335l6.056-6.056a1.1,1.1,0,0,0,0-1.561L51.452,7.609a1.1,1.1,0,0,0-1.561,0l-6.056,6.056V5.107A1.11,1.11,0,0,0,42.728,4H27.272a1.11,1.11,0,0,0-1.107,1.107v8.558L20.109,7.609a1.1,1.1,0,0,0-1.561,0L7.609,18.548a1.1,1.1,0,0,0,0,1.561l6.056,6.056H5.107A1.11,1.11,0,0,0,4,27.272V42.728a1.11,1.11,0,0,0,1.107,1.107h8.558L7.609,49.891a1.1,1.1,0,0,0,0,1.561L18.548,62.391a1.1,1.1,0,0,0,1.561,0l6.056-6.056v8.558A1.11,1.11,0,0,0,27.272,66H42.728a1.11,1.11,0,0,0,1.107-1.107V56.335l6.056,6.056a1.1,1.1,0,0,0,1.561,0L62.391,51.452a1.1,1.1,0,0,0,0-1.561l-6.056-6.056h8.558A1.11,1.11,0,0,0,66,42.728V27.272a1.11,1.11,0,0,0-1.107-1.107ZM38.332,47.954A13.432,13.432,0,0,1,21.615,35c.728-17.756,26.043-17.756,26.771,0A13.376,13.376,0,0,1,38.332,47.954ZM37.38,37.812a1.1,1.1,0,0,0-.432.454,1.013,1.013,0,0,0-.133.509v7.241a10.8,10.8,0,0,1-3.277.055V38.952a.826.826,0,0,0-.044-.288,1.112,1.112,0,0,0-.631-.731,4.746,4.746,0,0,1-1.019-7.739v3.964a1.1,1.1,0,0,0,1.107,1.107c5.974-.123,5.174,1.085,5.2-5.071a4.762,4.762,0,0,1-.775,7.617Zm1.65,7.606V39.384A6.934,6.934,0,0,0,37.491,27.25a1.108,1.108,0,0,0-1.55,1.008v4.794H34.059V28.257a1.11,1.11,0,0,0-1.55-1.007c-5.274,1.839-6.023,9.574-1.185,12.356v5.945C19.617,41.273,22.381,24.074,35,23.829,47.406,24.054,50.4,40.837,39.03,45.418Z" transform="translate(-4 -4)" fill="url(#linear-gradient)"/>
</svg>
